#!OML:ASF Y:\EmotionMaleHayes\Project 1\Capture day 1\Session 1\Male1.ASF
:FULLY-SPECIFIED
:DEGREES
685
root 8.62812 16.543 3.72852 178.207 -6.49433 175.358
lowerback 7.77799 -0.191778 -8.39968
upperback 2.8607 -1.07722 0.469834
thorax -1.22408 -0.667833 5.31103
lowerneck -22.029 2.18299 2.56214
upperneck 28.6123 1.64699 -1.28644
head 13.3591 0.464543 -0.733522
rclavicle -8.77137e-015 -2.127e-014
rhumerus -37.0045 -5.38034 -79.3832
rradius 26.9911
rwrist 18.9356
rhand -8.72024 -32.0213
rfingers 7.12502
rthumb 17.2157 -61.2786
lclavicle -8.77137e-015 -2.127e-014
lhumerus -31.0471 -10.2593 94.1083
lradius 37.5556
lwrist -7.72866
lhand -18.9888 -25.9603
lfingers 7.12502
lthumb 7.31594 3.89327
rfemur -19.0959 1.43503 14.7708
rtibia 23.826
rfoot -9.76056 -7.24094
rtoes 13.1289
lfemur 22.5907 -2.62409 -29.3411
ltibia 26.5644
lfoot -5.86191 -5.95975
ltoes -4.51255
686
root 8.64737 16.5681 3.56964 178.028 -6.58506 175.893
lowerback 7.95915 -0.238404 -7.8194
upperback 2.79194 -1.10309 0.61711
thorax -1.40264 -0.665653 5.1445
lowerneck -21.9572 2.19273 2.81209
upperneck 28.6138 1.57342 -1.31917
head 13.3469 0.454163 -0.80261
rclavicle -2.6339e-015 -8.34896e-015
rhumerus -36.223 -5.26452 -79.5515
rradius 27.5228
rwrist 17.9335
rhand -9.33624 -32.261
rfingers 7.12502
rthumb 16.6227 -61.5692
lclavicle -2.6339e-015 -8.34896e-015
lhumerus -31.7034 -9.54409 93.8867
lradius 35.932
lwrist -8.36334
lhand -18.3257 -25.6048
lfingers 7.12502
lthumb 7.95603 4.22548
rfemur -18.1328 1.84991 15.6764
rtibia 23.5949
rfoot -10.394 -7.27792
rtoes 14.0413
lfemur 21.5334 -2.04631 -28.0016
ltibia 29.1053
lfoot -3.33771 -6.15484
ltoes -6.69014
687
root 8.65374 16.5977 3.4067 177.786 -6.64807 176.462
lowerback 8.11711 -0.242926 -7.05307
upperback 2.74185 -1.0538 0.779323
thorax -1.56312 -0.628647 4.88073
lowerneck -21.8458 2.11909 2.75004
upperneck 28.6311 1.4537 -1.22973
head 13.3263 0.404341 -0.77946
rclavicle 8.94531e-016 -3.97569e-015
rhumerus -35.6108 -4.10973 -80.017
rradius 28.4464
rwrist 15.7878
rhand -9.8938 -32.7515
rfingers 7.12502
rthumb 16.0859 -62.1038
lclavicle 8.94531e-016 -3.97569e-015
lhumerus -32.2635 -8.75728 93.7473
lradius 34.1781
lwrist -9.25012
lhand -17.7184 -25.2345
lfingers 7.12502
lthumb 8.54213 4.57275
rfemur -17.0542 1.94799 16.5364
rtibia 23.2892
rfoot -10.9491 -7.08704
rtoes 15.0646
lfemur 20.5679 -1.90324 -26.9703
ltibia 31.6069
lfoot -0.70777 -5.92182
ltoes -4.46466
688
root 8.65626 16.6277 3.24055 177.595 -6.52888 177.041
lowerback 8.08076 -0.185849 -6.17869
upperback 2.73386 -0.899838 0.877432
thorax -1.58697 -0.546994 4.47414
lowerneck -21.9506 2.07472 2.56812
upperneck 28.8638 1.33644 -0.937031
head 13.4388 0.367042 -0.657129
rclavicle -9.69075e-016 9.54166e-015
rhumerus -34.972 -3.21064 -80.388
rradius 29.3887
rwrist 13.9317
rhand -10.1446 -33.0614
rfingers 7.12502
rthumb 15.8444 -62.4331
lclavicle -9.69075e-016 9.54166e-015
lhumerus -32.612 -7.88333 93.4721
lradius 32.2216
lwrist -10.4596
lhand -17.2247 -24.9053
lfingers 7.12502
lthumb 9.01852 4.8819
rfemur -16.0296 1.97864 17.4812
rtibia 23.0083
rfoot -11.2364 -6.94863
rtoes 12.7504
lfemur 19.5777 -1.76642 -26.1111
ltibia 34.0181
lfoot 1.44107 -5.33439
ltoes -3.69392
689
root 8.66642 16.6538 3.07947 177.416 -6.43459 177.615
lowerback 8.08279 -0.13784 -5.41808
upperback 2.72379 -0.771472 0.992021
thorax -1.62487 -0.47905 4.15195
lowerneck -22.016 1.94442 2.76802
upperneck 28.9555 1.09267 -1.03911
head 13.4888 0.265928 -0.776265
rclavicle -4.37326e-015 3.57812e-015
rhumerus -34.2471 -3.56508 -80.3367
rradius 30.063
rwrist 13.3195
rhand -10.0371 -32.8149
rfingers 7.12502
rthumb 15.9479 -62.1783
lclavicle -4.37326e-015 3.57812e-015
lhumerus -32.9748 -6.79746 92.9741
lradius 30.3849
lwrist -11.8265
lhand -16.2662 -24.6548
lfingers 7.12502
lthumb 9.94335 5.09035
rfemur -14.9933 1.99457 18.4226
rtibia 22.6367
rfoot -11.5124 -6.84728
rtoes 10.273
lfemur 18.4871 -1.32436 -25.0602
ltibia 36.3974
lfoot 3.30833 -5.14244
ltoes -5.33586
690
root 8.68191 16.6786 2.92593 177.197 -6.47131 177.956
lowerback 8.24488 -0.116792 -5.02489
upperback 2.72258 -0.721435 1.08002
thorax -1.72618 -0.451635 4.01933
lowerneck -22.0076 1.8811 2.9435
upperneck 28.9047 0.957871 -1.09495
head 13.4646 0.221093 -0.851399
rclavicle 6.4605e-016 1.39149e-014
rhumerus -33.5288 -3.75151 -80.3706
rradius 30.8123
rwrist 12.3483
rhand -10.0954 -32.6029
rfingers 7.12502
rthumb 15.8918 -61.9709
lclavicle 6.4605e-016 1.39149e-014
lhumerus -33.3152 -5.77691 92.378
lradius 28.6892
lwrist -12.9908
lhand -14.7256 -24.2557
lfingers 7.12502
lthumb 11.4293 5.41281
rfemur -13.9073 1.81106 18.9758
rtibia 22.2006
rfoot -11.8954 -6.57559
rtoes 10.2232
lfemur 17.3379 -0.868845 -24.1655
ltibia 38.7937
lfoot 5.3534 -5.07443
ltoes -4.56189
